<svg preserveAspectRatio="none" width="100%" height="100%" overflow="visible" style="display: block;" viewBox="0 0 4.76915 4.91259" fill="none" xmlns="http://www.w3.org/2000/svg">
<g id="Group 43">
<path id="Star 1" d="M1.5932 1.38693C1.62992 1.27214 1.84476 1.27214 1.88149 1.38692C1.98732 1.71769 2.15278 2.12231 2.38235 2.36987C2.63495 2.64228 3.09187 2.86118 3.40064 2.98756C3.49927 3.02793 3.49927 3.1855 3.40064 3.22587C3.09187 3.35225 2.63495 3.57115 2.38235 3.84355C2.15278 4.09112 1.98732 4.49574 1.88149 4.8265C1.84476 4.94128 1.62992 4.94128 1.5932 4.8265C1.48737 4.49574 1.32191 4.09112 1.09234 3.84355C0.839743 3.57115 0.382822 3.35225 0.0740498 3.22587C-0.0245784 3.1855 -0.0245784 3.02793 0.0740498 2.98756C0.382822 2.86118 0.839743 2.64228 1.09234 2.36987C1.32191 2.12231 1.48737 1.71769 1.5932 1.38693Z" fill="var(--fill-0, black)"/>
<path id="Star 2" d="M4.04563 0.0425704C4.06586 -0.0141902 4.17774 -0.0141901 4.19797 0.0425705C4.23882 0.157204 4.29655 0.282745 4.37221 0.36434C4.46107 0.460164 4.61505 0.538933 4.73236 0.589382C4.78131 0.610433 4.78131 0.690377 4.73236 0.711428C4.61505 0.761877 4.46107 0.840646 4.37221 0.936469C4.29655 1.01806 4.23882 1.14361 4.19797 1.25824C4.17774 1.315 4.06586 1.315 4.04563 1.25824C4.00478 1.14361 3.94705 1.01806 3.87139 0.936469C3.78253 0.840646 3.62856 0.761877 3.51124 0.711428C3.46229 0.690377 3.46229 0.610433 3.51124 0.589382C3.62856 0.538933 3.78253 0.460164 3.87139 0.36434C3.94705 0.282745 4.00478 0.157204 4.04563 0.0425704Z" fill="var(--fill-0, black)"/>
</g>
</svg>
