<svg xmlns="http://www.w3.org/2000/svg" width="12" height="12" viewBox="0 0 12 12" fill="none">
  <path d="M11.0977 5.54883C11.0977 8.61336 8.61336 11.0977 5.54883 11.0977C2.48429 11.0977 0 8.61336 0 5.54883C0 2.48429 2.48429 0 5.54883 0C8.61336 0 11.0977 2.48429 11.0977 5.54883Z" fill="#00F1FE"/>
  <path d="M8.11064 3.90507C8.30584 3.70987 8.6224 3.71 8.81768 3.90507C9.01294 4.10033 9.01294 4.41684 8.81768 4.6121L5.17314 8.25663C4.97788 8.45182 4.66135 8.45187 4.46611 8.25663L2.27959 6.07011C2.08435 5.87487 2.0844 5.55835 2.27959 5.36308C2.47485 5.16782 2.79136 5.16782 2.98662 5.36308L4.81963 7.19609L8.11064 3.90507Z" fill="white"/>
</svg>
