<svg preserveAspectRatio="none" width="100%" height="100%" overflow="visible" style="display: block;" viewBox="0 0 17.395 7.28506" fill="none" xmlns="http://www.w3.org/2000/svg">
<g id="Group 895">
<path id="Rectangle 4056" d="M11.5522 0.400391H13.7524C15.5432 0.400391 16.9946 1.85178 16.9946 3.64258C16.9946 5.43336 15.5432 6.88477 13.7524 6.88477H8.55225C8.22091 6.88477 7.95269 6.61648 7.95264 6.28516V4C7.95264 2.01178 9.56402 0.400391 11.5522 0.400391Z" fill="var(--fill-0, #00FEF1)" stroke="var(--stroke-0, black)" stroke-width="0.8"/>
<path id="Rectangle 4057" d="M3.09082 3.17725H2.25391C1.23005 3.17732 0.400463 4.00691 0.400391 5.03076C0.400391 6.05468 1.23001 6.88518 2.25391 6.88525H5.09082C5.42219 6.88525 5.69043 6.61604 5.69043 6.28467V5.77686C5.69043 4.34092 4.52676 3.17725 3.09082 3.17725Z" fill="var(--fill-0, white)" stroke="var(--stroke-0, black)" stroke-width="0.8"/>
</g>
</svg>
